<svg width="102" height="115" viewBox="0 0 102 115" fill="none" xmlns="http://www.w3.org/2000/svg">
<path d="M50.6404 53.3617H17.0609C9.5779 53.3617 3.51172 59.4279 3.51172 66.9109V100.49C3.51172 107.973 9.5779 114.04 17.0609 114.04H50.6404C58.1234 114.04 64.1896 107.973 64.1896 100.49V66.9109C64.1896 59.4279 58.1234 53.3617 50.6404 53.3617Z" fill="#18A84A"/>
<path d="M37.3628 81.962L36.3128 80.1668C35.4171 78.5484 34.6105 76.8824 33.8965 75.1761C33.4335 74.1261 33.4448 72.6018 32.5303 72.1163C31.6157 71.6308 30.2721 72.0372 29.143 71.9582C28.2961 71.8905 28.1268 72.2066 28.1381 72.9857C28.1381 76.6214 28.1381 80.2684 28.1381 83.9041C28.1943 84.9468 27.8876 85.9767 27.27 86.8187C26.6524 87.6606 25.7622 88.2626 24.7508 88.5221C24.0822 88.6695 23.3889 88.6629 22.7232 88.503C22.0576 88.343 21.437 88.0338 20.9084 87.5988C20.3798 87.1637 19.957 86.6142 19.672 85.9917C19.387 85.3692 19.2473 84.6901 19.2633 84.0057C19.2633 80.4039 19.2633 76.8021 19.2633 73.2115C19.2633 72.0824 18.9359 71.8792 17.9649 71.9695C17.0736 72.0203 16.1802 72.0203 15.2889 71.9695C14.8147 71.9695 14.6002 72.1163 14.6114 72.6357C14.6905 76.8811 14.3856 81.1491 14.7582 85.3832C15.0059 87.5843 16.0666 89.6136 17.7326 91.0733C19.3986 92.533 21.5497 93.3178 23.7643 93.274C25.9789 93.2302 28.0972 92.3609 29.7042 90.8365C31.3112 89.312 32.2908 87.2424 32.4512 85.0332C32.4512 84.1977 32.4512 83.3508 32.4512 82.504C33.5803 84.096 34.4723 85.6542 35.5224 87.122C35.6456 87.2795 35.7294 87.4641 35.7667 87.6605C35.804 87.857 35.7938 88.0595 35.7369 88.2511C34.8449 92.1578 34.0207 96.0758 33.1513 99.9825C32.9706 100.773 33.0384 101.202 34.032 101.112C34.9176 101.016 35.811 101.016 36.6966 101.112C37.5661 101.202 37.8257 100.795 37.9499 100.05C38.4129 97.6678 38.921 95.308 39.4178 92.9256C39.7339 91.3449 39.7226 91.3561 41.2356 92.0449C41.691 92.2536 42.1585 92.4346 42.6357 92.5869C49.9071 94.9128 56.8624 89.0867 55.3833 81.804C55.0993 80.1693 54.3511 78.6508 53.228 77.4296C52.1049 76.2084 50.6542 75.336 49.049 74.9164C47.4995 74.3897 45.8307 74.3227 44.2439 74.7234C42.6571 75.1241 41.2202 75.9754 40.1065 77.1746C38.8379 78.5396 37.8992 80.1774 37.3628 81.962Z" fill="white"/>
<path d="M45.2889 88.3633C43.888 88.2001 42.5595 87.653 41.4499 86.7826C41.1225 86.5567 40.795 86.3196 40.9531 85.8454C41.2179 84.491 41.5725 83.1557 42.0145 81.8484C42.4168 80.7903 43.212 79.9283 44.2344 79.4424C45.2568 78.9564 46.4274 78.884 47.5019 79.2402C48.5644 79.5487 49.4767 80.2365 50.0657 81.1731C50.6547 82.1096 50.8794 83.2298 50.6973 84.3211C50.4636 85.5487 49.7789 86.6443 48.778 87.3924C47.7771 88.1405 46.5323 88.4869 45.2889 88.3633Z" fill="#18A84A"/>
<path d="M88.1154 2.79004H64.6527C57.1697 2.79004 51.1035 8.85623 51.1035 16.3392V39.802C51.1035 47.285 57.1697 53.3512 64.6527 53.3512H88.1154C95.5985 53.3512 101.665 47.285 101.665 39.802V16.3392C101.665 8.85623 95.5985 2.79004 88.1154 2.79004Z" fill="#38B773"/>
<path d="M83.2043 20.9336C84.8381 20.9336 86.1626 19.6091 86.1626 17.9753C86.1626 16.3415 84.8381 15.0171 83.2043 15.0171C81.5705 15.0171 80.2461 16.3415 80.2461 17.9753C80.2461 19.6091 81.5705 20.9336 83.2043 20.9336Z" fill="white"/>
<path d="M86.2866 22.8639H72.7374V21.9832C72.7374 20.2331 74.4762 20.2105 75.3569 20.2105C75.8517 20.1978 76.3465 20.228 76.836 20.3008V15.5134C76.117 15.4226 75.3929 15.3774 74.6682 15.3779C71.8454 15.3779 66.629 16.1683 66.629 22.1525V22.9203H64.1562V27.3464H66.6403V36.7066H64.3821V41.144H75.4811V36.6953H72.7939V27.3351H80.1895V36.6953H77.9313V41.1327H88.6803V36.6953H86.4221L86.2866 22.8639Z" fill="white"/>
<path d="M33.6585 0H11.291C5.05515 0 0 5.05516 0 11.291V33.6585C0 39.8943 5.05515 44.9495 11.291 44.9495H33.6585C39.8943 44.9495 44.9495 39.8943 44.9495 33.6585V11.291C44.9495 5.05516 39.8943 0 33.6585 0Z" fill="#4FACE1"/>
<path d="M25.4493 12.0259L27.7753 15.289L39.5405 12.0259M13.2099 37.4306L19.5893 31.2206L15.7616 27.1107M24.4896 12.0259L21.1023 15.097L26.8155 15.3116M11.313 12.0259L12.4421 14.5212L19.2167 14.939M14.8696 24.9992L19.8377 15.718L5.39648 14.939M15.4455 25.5864L20.1425 30.6447L25.3364 25.5638L26.9397 16.0906L20.6168 15.7745" fill="white"/>
</svg>